<mxfile host="app.diagrams.net" modified="2023-09-10T14:00:55.270Z" agent="Mozilla/5.0 (Windows NT 10.0; Win64; x64) AppleWebKit/537.36 (KHTML, like Gecko) Chrome/116.0.0.0 Safari/537.36" version="21.7.4" etag="7KBMqmn4x5e7XEsM2ou9" type="github">
  <diagram name="Trang-1" id="1jcJ26ELVOyJUw2u0H31">
    <mxGraphModel>
      <root>
        <mxCell id="0" />
        <mxCell id="1" parent="0" />
      </root>
    </mxGraphModel>
  </diagram>
</mxfile>
